<svg xmlns="http://www.w3.org/2000/svg" version="1.1" xmlns:xlink="http://www.w3.org/1999/xlink" xmlns:svgjs="http://svgjs.dev/svgjs" width="1000" height="1000" viewBox="0 0 1000 1000"><rect width="1000" height="1000" fill="#000000"></rect><g transform="matrix(0.43370508054522927,0,0,0.43370508054522927,282.6046197082715,150.28340080971657)"><svg viewBox="0 0 153 247" data-background-color="#61777f" preserveAspectRatio="xMidYMid meet" height="1614" width="1000" xmlns="http://www.w3.org/2000/svg" xmlns:xlink="http://www.w3.org/1999/xlink"><g id="tight-bounds" transform="matrix(1,0,0,1,0.1915000000000191,-0.09999999999999432)"><svg viewBox="0 0 152.61683040000003 247.2" height="247.2" width="152.61683040000003"><g><svg></svg></g><g><svg viewBox="0 0 152.61683040000003 247.2" height="247.2" width="152.61683040000003"><g transform="matrix(1,0,0,1,0,47.29158479999998)"><svg viewBox="0 0 152.61683040000003 152.61683040000003" height="152.61683040000003" width="152.61683040000003"><g><svg viewBox="0 0 152.61683040000003 152.61683040000003" height="152.61683040000003" width="152.61683040000003"><g><svg viewBox="0 0 152.61683040000003 152.61683040000003" height="152.61683040000003" width="152.61683040000003"><g id="textblocktransform"><svg viewBox="0 0 152.61683040000003 152.61683040000003" height="152.61683040000003" width="152.61683040000003" id="textblock"><g><svg viewBox="0 0 152.61683040000003 152.61683040000003" height="152.61683040000003" width="152.61683040000003"><g transform="matrix(1,0,0,1,46.895671038553246,40.33628330032092)"><svg viewBox="0 0 58.825488322893534 71.94426379935818" height="71.94426379935818" width="58.825488322893534"><g><svg xmlns="http://www.w3.org/2000/svg" xmlns:xlink="http://www.w3.org/1999/xlink" version="1.1" x="0" y="0" viewBox="12.843025207519531 3.7270021438598633 74.73271942138672 91.39899444580078" enable-background="new 0 0 100 100" xml:space="preserve" height="71.94426379935818" width="58.825488322893534" class="icon-o-0" data-fill-palette-color="accent" id="o-0"><path fill="#ffffff" d="M40.811 21.547c0.167 0 0.336-0.038 0.495-0.116l8.861-4.381 8.86 4.381c0.16 0.079 0.328 0.116 0.496 0.116 0.41 0 0.809-0.229 1.004-0.623 0.272-0.554 0.047-1.226-0.508-1.5l-8.349-4.128c0.711-1.221 1.679-3.291 1.679-5.494 0-3.52-2.554-6.075-6.074-6.075-3.349 0-6.074 2.725-6.074 6.075 0 0.618 0.5 1.119 1.119 1.119 0.618 0 1.119-0.501 1.119-1.119 0-2.115 1.721-3.836 3.835-3.836 1.91 0 3.836 1.187 3.836 3.836 0 2.522-1.763 5.002-1.938 5.239l-8.861 4.383c-0.555 0.274-0.782 0.945-0.508 1.5C40.002 21.319 40.399 21.547 40.811 21.547z" data-fill-palette-color="accent"></path><path fill="#ffffff" d="M32.465 21.629C32.326 21.626 32.297 21.625 32.465 21.629L32.465 21.629z" data-fill-palette-color="accent"></path><path fill="#ffffff" d="M86.639 42.845c-0.061-0.117-0.115-0.223-0.146-0.28C86.518 42.61 86.562 42.699 86.639 42.845z" data-fill-palette-color="accent"></path><path fill="#ffffff" d="M86.764 43.081c-0.004-0.008-0.007-0.013-0.012-0.022-0.044-0.084-0.079-0.151-0.113-0.213 0.018 0.03 0.032 0.058 0.049 0.088-0.813-1.548-1.627-3.096-2.449-4.639-1.998-3.754-3.98-7.55-6.266-11.142-3.445-5.412-9.74-6.293-15.339-4.022-3.635 1.474-9.899 8.296-12.603 8.296-2.702 0-8.699-6.822-12.333-8.296-5.576-2.263-11.816-1.368-15.247 4.022-2.287 3.592-4.269 7.387-6.269 11.142-0.843 1.585-1.678 3.175-2.513 4.764-0.501 0.955-1.108 1.738-0.682 2.85 0.684 1.783 2.392 3.218 3.923 4.261 1.818 1.237 4.036 2.252 6.28 2.186 0.393-0.013 1.473-0.016 1.729-0.361 0.355-0.479 0.647-1.016 0.954-1.525 1.312-2.173 2.59-4.365 3.869-6.557-1.484 10.521-2.772 21.072-3.87 31.641-0.484 4.65-0.937 9.307-1.243 13.973-0.167 2.535-0.235 1.815-0.104 2.75 0.136 0.961 1.197 1.289 2.043 1.51 2.243 0.585 15.692 1.339 23.568 1.339 7.864 0 21.471-0.754 23.713-1.339 0.846-0.221 1.817-0.564 2.043-1.51 0.164-0.686 0.062-0.215-0.104-2.75-0.307-4.666-0.76-9.321-1.242-13.973-1.099-10.568-2.387-21.119-3.871-31.641 1.279 2.192 2.559 4.384 3.869 6.557 0.309 0.512 0.6 1.047 0.954 1.525 0.258 0.347 1.336 0.35 1.729 0.361 2.244 0.066 4.461-0.947 6.279-2.186 1.531-1.043 3.239-2.478 3.924-4.261C87.855 44.805 87.264 44.025 86.764 43.081zM22.729 50.759c-0.398 0.579-2.473-0.157-4.635-1.645-2.163-1.487-3.594-3.16-3.197-3.739 0.397-0.578 2.474 0.159 4.635 1.645C21.696 48.506 23.125 50.181 22.729 50.759zM71.686 91.975c0 1.058-9.635 1.709-21.564 1.707-11.931 0.002-21.564-0.649-21.564-1.707 0-1.057 9.633-0.992 21.564-0.99C62.051 90.98 71.686 90.918 71.686 91.975zM82.678 49.114c-2.162 1.485-4.236 2.224-4.635 1.645-0.396-0.578 1.033-2.252 3.195-3.739 2.162-1.486 4.238-2.223 4.636-1.645C86.271 45.954 84.841 47.627 82.678 49.114z" data-fill-palette-color="accent"></path><path fill="#ffffff" d="M67.956 21.629C68.123 21.625 68.096 21.626 67.956 21.629L67.956 21.629z" data-fill-palette-color="accent"></path></svg></g></svg></g><g><path d="M15.264 61.131c0.869 0.28 1.526 0.639 1.969 1.078 0.436 0.443 0.582 0.886 0.441 1.327v0c-0.15 0.467-0.468 0.622-0.954 0.465v0l-0.598-0.213c-0.288-0.093-0.539-0.089-0.754 0.011-0.216 0.1-0.367 0.287-0.456 0.562v0c-0.084 0.262-0.069 0.5 0.045 0.713 0.115 0.213 0.31 0.364 0.585 0.452v0c0.46 0.148 0.909 0.056 1.347-0.275 0.445-0.329 0.772-0.82 0.982-1.472v0c0.165-0.511 0.205-1.031 0.12-1.558-0.082-0.534-0.277-1.002-0.584-1.405v0c-0.284-0.366-0.668-0.684-1.153-0.953-0.485-0.269-1.174-0.547-2.07-0.835v0l-12.787-4.116 0.383-1.749-0.173-0.055-1.607 4.994 0.173 0.055 0.712-1.653z" fill="#ffffff" data-fill-palette-color="primary"></path><path d="M20.309 39.456l2.854-3.838-0.289-0.404-2.855 3.839z" fill="#ffffff" data-fill-palette-color="primary"></path><path d="M44.471 24.433c0.77-0.465 1.363-1.048 1.78-1.747 0.42-0.693 0.633-1.426 0.637-2.197 0.007-0.781-0.207-1.53-0.641-2.248v0c-0.389-0.643-0.858-1.101-1.407-1.374-0.549-0.272-1.138-0.422-1.766-0.45-0.634-0.024-1.426 0.023-2.375 0.141v0c-1.066 0.119-1.909 0.177-2.529 0.176-0.617 0.004-1.165-0.104-1.644-0.325-0.479-0.221-0.883-0.604-1.212-1.149v0c-0.458-0.758-0.59-1.495-0.394-2.21 0.192-0.72 0.673-1.313 1.443-1.778v0c1.275-0.771 2.609-0.706 4 0.194v0c0.696 0.45 1.396 1.031 2.101 1.743v0l0.153-0.175-2.643-3.945-0.242 0.146 0.094 1.167c-0.754-0.093-1.402-0.094-1.943-0.002-0.547 0.095-1.076 0.297-1.587 0.606v0c-0.73 0.441-1.293 0.989-1.689 1.645-0.39 0.652-0.589 1.348-0.595 2.09-0.001 0.738 0.205 1.449 0.618 2.132v0c0.403 0.666 0.899 1.143 1.488 1.431 0.586 0.281 1.195 0.427 1.829 0.436 0.637 0.015 1.387-0.034 2.251-0.149v0c1.052-0.142 1.889-0.216 2.512-0.224 0.626-0.002 1.188 0.11 1.685 0.334 0.503 0.222 0.923 0.611 1.26 1.169v0c0.483 0.799 0.612 1.583 0.387 2.354-0.219 0.768-0.776 1.422-1.672 1.964v0c-1.046 0.632-2.1 0.783-3.162 0.453v0c-0.519-0.157-1.015-0.414-1.49-0.771-0.48-0.353-1.067-0.896-1.761-1.63v0l-0.152 0.139 2.935 4.31 0.241-0.146-0.224-1.265c0.579 0.089 1.196 0.058 1.85-0.094 0.657-0.146 1.278-0.396 1.864-0.751z" fill="#ffffff" data-fill-palette-color="primary"></path><path d="M68.347 1.33l1.416 14.36-2.327 0.412 0.016 0.17 6.354-0.626-0.017-0.17-2.363 0.051-1.415-14.361 3.167-0.313c0.347-0.034 0.6-0.005 0.757 0.088 0.165 0.098 0.33 0.305 0.496 0.619v0l1.672 3.204 0.166-0.056-0.944-4.653-0.13 0.013c-0.3 0.171-0.562 0.291-0.784 0.36-0.217 0.062-0.498 0.11-0.846 0.144v0l-8.338 0.822c-0.347 0.034-0.637 0.043-0.868 0.025-0.225-0.025-0.505-0.092-0.839-0.2v0l-0.131 0.012-0.378 4.783 0.174 0.024 1.164-3.485c0.115-0.342 0.247-0.577 0.396-0.706 0.15-0.123 0.395-0.201 0.736-0.235v0z" fill="#ffffff" data-fill-palette-color="primary"></path><path d="M106.364 6.559l4.341 1.644-0.064 0.169-1.188-0.331c-0.33-0.096-0.58-0.119-0.749-0.069-0.164 0.053-0.38 0.208-0.65 0.465v0l-6.341 6.052-1.986 5.245 1.706 0.84-0.06 0.16-5.114-1.936 0.061-0.16 1.834 0.501 1.951-5.152-1.296-9.913-1.607-0.791 0.065-0.169 5.066 1.918-0.064 0.17-1.831-0.511 1.213 9.279 0.104 0.039 5.969-5.697c0.102-0.098 0.179-0.216 0.231-0.354v0c0.052-0.138 0.044-0.26-0.023-0.364-0.07-0.098-0.213-0.196-0.428-0.292v0l-1.204-0.574z" fill="#ffffff" data-fill-palette-color="primary"></path><path d="M129.635 21.434l-10.021 10.229-1.407-1.125-0.12 0.122 7.625 7.47 3.708-3.008-0.152-0.219-3.665 1.626c-0.321 0.136-0.575 0.189-0.76 0.157-0.19-0.036-0.41-0.176-0.66-0.42v0l-3.438-3.369 10.085-10.293 1.472 1.202 0.126-0.129-3.826-3.75-0.127 0.13z" fill="#ffffff" data-fill-palette-color="primary"></path><path d="M142.988 60.898l0.068 0.233-4.46 1.141-3.85-9.956 0.16-0.062 0.816 1.607 13.356-5.164-0.487-1.734 0.169-0.065 3.857 9.975-3.714 1.76-0.095-0.19 2.403-2.247c0.261-0.238 0.413-0.448 0.458-0.63 0.041-0.174-0.002-0.424-0.128-0.75v0l-1.776-4.593-6.236 2.412 1.162 3.005c0.126 0.326 0.269 0.537 0.428 0.634 0.164 0.088 0.41 0.101 0.738 0.038v0l1.778-0.288 0.095 0.244-5.194 2.009-0.095-0.245 1.51-0.983c0.291-0.177 0.465-0.352 0.52-0.525 0.053-0.179 0.017-0.431-0.109-0.757v0l-1.162-3.005-6.96 2.691 1.758 4.546c0.126 0.326 0.268 0.544 0.426 0.655 0.158 0.112 0.411 0.169 0.757 0.172v0z" fill="#ffffff" data-fill-palette-color="primary"></path><path d="M7.325 99.821l6.427-1.95 1.5 4.944-0.78 0.237-1.231-4.057-1.976 0.599 1.105 3.642-0.78 0.237-1.105-3.642-2.111 0.64 1.249 4.115-0.781 0.236z" fill="#d2d6dc" data-fill-palette-color="default"></path><path d="M9.458 106.388l4.274 1.021 1.98-3.482 0.461 1.062-1.49 2.589 0.032 0.074 2.913 0.69 0.445 1.026-3.879-0.919-2.175 3.842-0.457-1.053 1.708-2.97-0.032-0.074-3.331-0.772z" fill="#d2d6dc" data-fill-palette-color="default"></path><path d="M12.889 113.955l5.87-3.265 1.586 2.851c0.33 0.593 0.417 1.136 0.261 1.63-0.146 0.496-0.49 0.895-1.029 1.194v0c-0.557 0.31-1.092 0.392-1.603 0.247-0.517-0.143-0.932-0.495-1.246-1.059v0l-1.135-2.042-2.253 1.253zM16.297 113.12l1.116 2.006c0.176 0.317 0.416 0.514 0.72 0.591 0.304 0.077 0.629 0.019 0.975-0.174v0c0.346-0.193 0.564-0.429 0.654-0.709 0.09-0.28 0.04-0.591-0.149-0.931v0l-1.116-2.007z" fill="#d2d6dc" data-fill-palette-color="default"></path><path d="M16.768 120.506l5.477-3.888 2.023 2.849c0.389 0.547 0.544 1.067 0.465 1.559-0.069 0.494-0.342 0.91-0.818 1.248v0c-0.372 0.264-0.757 0.401-1.153 0.411-0.398 0.019-0.767-0.089-1.108-0.325v0l-1.475 2.95-0.6-0.846 1.412-2.794-1.428-2.012-2.258 1.604zM20.228 119.186l1.457 2.053c0.21 0.296 0.467 0.472 0.77 0.528 0.3 0.051 0.603-0.033 0.909-0.251v0c0.29-0.206 0.454-0.45 0.493-0.732 0.037-0.273-0.058-0.568-0.283-0.886v0l-1.458-2.053z" fill="#d2d6dc" data-fill-palette-color="default"></path><path d="M21.658 127.026l5.021-4.462 3.432 3.862-0.61 0.542-2.816-3.17-1.543 1.372 2.528 2.845-0.61 0.542-2.528-2.846-1.649 1.465 2.857 3.215-0.61 0.541z" fill="#d2d6dc" data-fill-palette-color="default"></path><path d="M28.625 134.324c-0.607-0.55-0.992-1.12-1.155-1.71-0.157-0.586-0.004-1.136 0.46-1.649v0l0.136-0.135 0.68 0.615c-0.073 0.061-0.123 0.106-0.151 0.136v0c-0.27 0.299-0.351 0.633-0.242 1.003 0.104 0.375 0.36 0.747 0.768 1.117v0c0.453 0.41 0.867 0.653 1.242 0.73 0.365 0.077 0.669-0.019 0.912-0.288v0c0.162-0.179 0.235-0.385 0.219-0.617-0.016-0.232-0.09-0.466-0.22-0.702-0.131-0.245-0.322-0.554-0.574-0.927v0c-0.309-0.469-0.542-0.862-0.7-1.177-0.163-0.32-0.249-0.651-0.256-0.993-0.007-0.342 0.128-0.667 0.408-0.975v0c0.392-0.433 0.873-0.599 1.444-0.5 0.571 0.1 1.14 0.407 1.706 0.921v0c0.562 0.509 0.914 1.041 1.056 1.594 0.146 0.549 0.005 1.06-0.423 1.533v0l-0.081 0.089-0.671-0.608 0.101-0.112c0.221-0.244 0.285-0.539 0.191-0.887-0.098-0.342-0.326-0.675-0.684-0.999v0c-0.383-0.347-0.743-0.564-1.081-0.652-0.338-0.097-0.612-0.029-0.823 0.204v0c-0.153 0.169-0.215 0.362-0.186 0.58 0.03 0.217 0.107 0.441 0.233 0.673 0.116 0.232 0.3 0.534 0.552 0.906v0c0.309 0.469 0.547 0.866 0.715 1.191 0.168 0.324 0.254 0.66 0.257 1.007 0.012 0.346-0.119 0.671-0.394 0.975v0c-0.478 0.528-1.013 0.744-1.607 0.65-0.589-0.09-1.2-0.42-1.832-0.993z" fill="#d2d6dc" data-fill-palette-color="default"></path><path d="M34.565 139.088c-0.662-0.482-1.105-1.008-1.329-1.578-0.219-0.566-0.125-1.129 0.282-1.688v0l0.121-0.149 0.741 0.54c-0.066 0.068-0.111 0.118-0.135 0.151v0c-0.237 0.326-0.282 0.667-0.135 1.023 0.143 0.362 0.438 0.705 0.883 1.029v0c0.494 0.36 0.931 0.558 1.311 0.594 0.371 0.038 0.663-0.09 0.877-0.383v0c0.142-0.195 0.193-0.408 0.152-0.637-0.041-0.229-0.139-0.454-0.293-0.675-0.156-0.23-0.379-0.517-0.669-0.86v0c-0.357-0.434-0.63-0.8-0.821-1.097-0.196-0.301-0.316-0.621-0.36-0.959-0.044-0.339 0.057-0.677 0.302-1.014v0c0.344-0.472 0.805-0.689 1.383-0.65 0.578 0.039 1.176 0.284 1.795 0.735v0c0.613 0.447 1.02 0.938 1.219 1.473 0.203 0.53 0.117 1.053-0.258 1.569v0l-0.071 0.097-0.733-0.533 0.089-0.122c0.194-0.266 0.226-0.566 0.096-0.902-0.134-0.33-0.396-0.637-0.786-0.922v0c-0.418-0.304-0.799-0.482-1.143-0.533-0.346-0.061-0.612 0.036-0.798 0.291v0c-0.134 0.185-0.175 0.383-0.123 0.596 0.053 0.213 0.154 0.428 0.304 0.644 0.14 0.218 0.355 0.499 0.644 0.843v0c0.357 0.434 0.636 0.804 0.837 1.108 0.202 0.305 0.322 0.629 0.362 0.974 0.049 0.343-0.047 0.68-0.288 1.011v0c-0.419 0.575-0.929 0.848-1.529 0.817-0.595-0.027-1.237-0.291-1.927-0.793z" fill="#d2d6dc" data-fill-palette-color="default"></path><path d="M38.885 141.852l3.372-5.81 4.467 2.594-0.409 0.705-3.667-2.128-1.036 1.785 3.292 1.911-0.409 0.706-3.292-1.911-1.108 1.907 3.719 2.159-0.409 0.705z" fill="#d2d6dc" data-fill-palette-color="default"></path><path d="M47.785 146.604c-0.749-0.332-1.292-0.754-1.632-1.264-0.333-0.508-0.359-1.077-0.079-1.71v0l0.087-0.171 0.838 0.372c-0.05 0.08-0.084 0.139-0.1 0.176v0c-0.163 0.368-0.136 0.711 0.083 1.029 0.216 0.324 0.576 0.597 1.079 0.82v0c0.558 0.248 1.027 0.349 1.407 0.305 0.371-0.041 0.63-0.227 0.777-0.559v0c0.098-0.221 0.103-0.439 0.015-0.654-0.088-0.215-0.231-0.415-0.429-0.598-0.201-0.192-0.479-0.426-0.834-0.701v0c-0.44-0.349-0.784-0.649-1.034-0.899-0.255-0.253-0.44-0.54-0.553-0.863-0.114-0.322-0.087-0.674 0.082-1.054v0c0.237-0.534 0.642-0.843 1.215-0.926 0.573-0.083 1.21 0.03 1.909 0.34v0c0.693 0.308 1.194 0.702 1.502 1.184 0.31 0.476 0.336 1.005 0.078 1.588v0l-0.049 0.111-0.829-0.368 0.061-0.138c0.133-0.301 0.102-0.601-0.095-0.902-0.2-0.294-0.521-0.54-0.963-0.735v0c-0.472-0.21-0.883-0.304-1.23-0.282-0.351 0.013-0.591 0.164-0.718 0.453v0c-0.093 0.209-0.091 0.411 0.005 0.608 0.096 0.197 0.24 0.386 0.432 0.566 0.183 0.184 0.452 0.413 0.807 0.689v0c0.44 0.349 0.79 0.652 1.052 0.907 0.261 0.255 0.447 0.547 0.558 0.876 0.12 0.325 0.097 0.675-0.069 1.049v0c-0.289 0.65-0.73 1.024-1.323 1.121-0.588 0.099-1.271-0.024-2.05-0.37z" fill="#d2d6dc" data-fill-palette-color="default"></path><path d="M57.881 149.992l0.709-2.687-1.556-4.483 1.081 0.285 1.154 3.481 0.049 0.013 2.701-2.463 1.032 0.272-3.565 3.131-0.709 2.688z" fill="#d2d6dc" data-fill-palette-color="default"></path><path d="M66.294 151.828c-1.049-0.157-1.819-0.567-2.31-1.231-0.491-0.664-0.652-1.564-0.483-2.699v0c0.171-1.142 0.588-1.959 1.252-2.45 0.664-0.491 1.52-0.659 2.57-0.502v0c1.062 0.159 1.839 0.57 2.33 1.234 0.491 0.664 0.652 1.567 0.481 2.709v0c-0.169 1.129-0.585 1.939-1.249 2.431-0.665 0.498-1.529 0.668-2.591 0.508zM66.412 151.042c0.77 0.115 1.389-0.006 1.856-0.364 0.467-0.351 0.768-0.985 0.906-1.902v0l0.004-0.029c0.131-0.924 0.026-1.629-0.315-2.114-0.342-0.485-0.894-0.785-1.658-0.9v0c-0.757-0.113-1.37 0.013-1.838 0.377-0.469 0.364-0.775 1.008-0.92 1.93v0l-0.004 0.03c-0.137 0.916-0.034 1.611 0.31 2.082 0.343 0.479 0.896 0.775 1.659 0.89z" fill="#d2d6dc" data-fill-palette-color="default"></path><path d="M74.697 152.559c-0.879-0.031-1.549-0.27-2.01-0.716-0.461-0.439-0.677-1.099-0.646-1.978v0l0.149-4.236 0.926 0.032-0.151 4.287c-0.02 0.57 0.122 1.012 0.427 1.325 0.305 0.306 0.749 0.47 1.333 0.491v0c0.584 0.021 1.042-0.114 1.374-0.405 0.333-0.291 0.509-0.718 0.529-1.282v0l0.151-4.287 0.926 0.033-0.149 4.237c-0.031 0.879-0.292 1.521-0.784 1.927-0.491 0.413-1.183 0.603-2.075 0.572z" fill="#d2d6dc" data-fill-palette-color="default"></path><path d="M80.122 152.387l-0.546-6.695 3.483-0.283c0.669-0.054 1.195 0.078 1.578 0.397 0.389 0.312 0.607 0.759 0.655 1.341v0c0.037 0.455-0.041 0.855-0.235 1.201-0.187 0.352-0.469 0.614-0.846 0.786v0l1.782 2.775-1.034 0.084-1.68-2.642-2.459 0.201 0.225 2.76zM80.754 148.739l2.509-0.205c0.361-0.029 0.644-0.16 0.847-0.392 0.197-0.232 0.28-0.535 0.25-0.909v0c-0.029-0.355-0.155-0.621-0.379-0.798-0.216-0.171-0.518-0.241-0.906-0.209v0l-2.509 0.204z" fill="#d2d6dc" data-fill-palette-color="default"></path><path d="M91.819 150.821l-1.611-6.521 3.167-0.783c0.658-0.163 1.205-0.104 1.641 0.176 0.441 0.271 0.735 0.707 0.883 1.306v0c0.153 0.619 0.092 1.156-0.183 1.612-0.273 0.462-0.723 0.77-1.348 0.924v0l-2.268 0.561 0.619 2.503zM91.907 147.314l2.229-0.551c0.352-0.087 0.605-0.267 0.758-0.54 0.154-0.273 0.183-0.602 0.088-0.987v0c-0.095-0.385-0.266-0.657-0.513-0.817-0.247-0.16-0.56-0.194-0.937-0.1v0l-2.229 0.551z" fill="#d2d6dc" data-fill-palette-color="default"></path><path d="M99.149 148.802l-2.288-6.315 4.857-1.76 0.278 0.767-3.986 1.445 0.703 1.94 3.579-1.296 0.278 0.767-3.579 1.296 0.751 2.074 4.043-1.465 0.278 0.767z" fill="#d2d6dc" data-fill-palette-color="default"></path><path d="M106.234 146.008l-2.973-6.023 3.133-1.547c0.602-0.297 1.14-0.368 1.613-0.213 0.477 0.147 0.844 0.482 1.103 1.006v0c0.202 0.409 0.277 0.811 0.224 1.203-0.044 0.396-0.209 0.744-0.496 1.043v0l2.679 1.923-0.93 0.459-2.536-1.837-2.212 1.092 1.226 2.484zM105.478 142.383l2.257-1.115c0.325-0.16 0.539-0.386 0.643-0.676 0.098-0.288 0.063-0.6-0.103-0.938v0c-0.158-0.319-0.373-0.52-0.645-0.602-0.264-0.079-0.57-0.033-0.92 0.14v0l-2.257 1.114z" fill="#d2d6dc" data-fill-palette-color="default"></path><path d="M115.6 140.972c-0.69 0.442-1.341 0.664-1.954 0.666-0.607-0.002-1.097-0.294-1.47-0.877v0l-0.094-0.166 0.771-0.494c0.039 0.086 0.07 0.147 0.092 0.18v0c0.217 0.339 0.519 0.505 0.904 0.497 0.389-0.002 0.816-0.152 1.279-0.449v0c0.514-0.33 0.858-0.665 1.03-1.006 0.17-0.332 0.157-0.651-0.038-0.956v0c-0.13-0.204-0.31-0.328-0.538-0.373-0.228-0.045-0.473-0.036-0.735 0.029-0.271 0.062-0.619 0.166-1.045 0.31v0c-0.534 0.175-0.974 0.297-1.32 0.367-0.351 0.074-0.693 0.069-1.025-0.013-0.332-0.082-0.61-0.299-0.834-0.65v0c-0.315-0.492-0.349-1-0.104-1.524 0.246-0.524 0.691-0.993 1.336-1.406v0c0.639-0.409 1.244-0.609 1.816-0.601 0.568 0.003 1.024 0.273 1.368 0.81v0l0.065 0.102-0.763 0.489-0.082-0.127c-0.177-0.277-0.446-0.416-0.805-0.417-0.356 0.005-0.737 0.137-1.144 0.398v0c-0.435 0.279-0.74 0.569-0.913 0.872-0.182 0.3-0.189 0.583-0.018 0.848v0c0.123 0.192 0.293 0.302 0.51 0.331 0.217 0.028 0.454 0.012 0.711-0.049 0.254-0.051 0.594-0.149 1.019-0.294v0c0.534-0.175 0.979-0.301 1.337-0.378 0.357-0.077 0.703-0.072 1.039 0.017 0.337 0.079 0.617 0.291 0.837 0.635v0c0.384 0.599 0.452 1.173 0.206 1.722-0.241 0.545-0.72 1.047-1.438 1.507z" fill="#d2d6dc" data-fill-palette-color="default"></path><path d="M122.185 136.104c-0.822 0.67-1.644 0.964-2.466 0.881-0.822-0.083-1.595-0.57-2.321-1.46v0c-0.73-0.895-1.053-1.753-0.97-2.575 0.083-0.822 0.536-1.568 1.359-2.238v0c0.832-0.679 1.659-0.977 2.481-0.893 0.822 0.083 1.598 0.573 2.327 1.467v0c0.721 0.884 1.04 1.737 0.957 2.559-0.079 0.827-0.535 1.58-1.367 2.259zM121.682 135.488c0.603-0.492 0.93-1.032 0.98-1.618 0.054-0.581-0.211-1.231-0.797-1.949v0l-0.019-0.024c-0.595-0.719-1.187-1.115-1.776-1.189-0.589-0.074-1.183 0.133-1.781 0.62v0c-0.593 0.484-0.912 1.021-0.958 1.614-0.046 0.592 0.224 1.251 0.808 1.978v0l0.019 0.024c0.586 0.718 1.169 1.109 1.749 1.172 0.585 0.069 1.176-0.141 1.775-0.628z" fill="#d2d6dc" data-fill-palette-color="default"></path><path d="M126.373 132.263l-4.807-4.692 0.577-0.591 5.826 0.734 0.393 0.045 0.021-0.036-0.325-0.316-3.243-3.165 0.605-0.62 4.807 4.691-0.556 0.57-5.884-0.762-0.421-0.059-0.021 0.036 0.289 0.281 3.344 3.264z" fill="#d2d6dc" data-fill-palette-color="default"></path><path d="M131.478 126.801l-3.757-6.144 0.722-0.944 6.919 2.009-0.605 0.792-1.834-0.553-1.89 2.471 1.026 1.609zM130.568 123.697l1.524-1.992-2.141-0.649-1.229-0.382-0.031 0.04 0.675 1.074z" fill="#d2d6dc" data-fill-palette-color="default"></path><path d="M136.398 120.152l-5.686-3.577 0.494-0.784 4.995 3.142 1.834-2.915 0.69 0.434z" fill="#d2d6dc" data-fill-palette-color="default"></path><path d="M139.752 114.54l-5.907-3.197 0.445-0.823 5.908 3.197z" fill="#d2d6dc" data-fill-palette-color="default"></path><path d="M142.053 109.682l-5.408-2.361-0.927 2.123-0.747-0.327 2.224-5.094 0.748 0.326-0.927 2.123 5.408 2.361z" fill="#d2d6dc" data-fill-palette-color="default"></path><path d="M144.649 102.831l-2.648-0.845-4.556 1.327 0.34-1.065 3.535-0.976 0.015-0.048-2.323-2.823 0.324-1.017 2.947 3.72 2.648 0.844z" fill="#d2d6dc" data-fill-palette-color="default"></path><path d="M1.431 80.348c0-3.242 2.628-5.87 5.87-5.87 3.242 0 5.87 2.628 5.87 5.87 0 3.242-2.628 5.87-5.87 5.87-3.242 0-5.87-2.628-5.87-5.87z" fill="#ffffff" data-fill-palette-color="primary"></path><path d="M139.752 80.348c0-3.242 2.628-5.87 5.87-5.87 3.242 0 5.87 2.628 5.87 5.87 0 3.242-2.628 5.87-5.87 5.87-3.242 0-5.87-2.628-5.87-5.87z" fill="#ffffff" data-fill-palette-color="primary"></path></g></svg></g></svg></g></svg></g><g></g></svg></g></svg></g><path d="M0 41.292L0 1 152.617 1 152.617 41.292 152.034 41.292 152.034 1.583 0.583 1.583 0.583 41.292 0 41.292M0 205.908L0 246.2 152.617 246.2 152.617 205.908 152.034 205.908 152.034 245.617 0.583 245.617 0.583 205.908 0 205.908" fill="#ffffff" stroke="transparent" data-fill-palette-color="primary"></path></svg></g><defs></defs></svg><rect width="152.61683040000003" height="247.2" fill="none" stroke="none" visibility="hidden"></rect></g></svg></g></svg>